<svg width="25" height="25" viewBox="0 0 25 25" fill="none" xmlns="http://www.w3.org/2000/svg">
<g filter="url(#filter0_d_256_1116)">
<path d="M18.1667 12.0161C17.4489 12.0161 16.8067 12.2721 16.3156 12.6732L9.58167 9.13153C9.62889 8.93524 9.66667 8.73896 9.66667 8.53414C9.66667 8.32932 9.62889 8.13303 9.58167 7.93675L16.24 4.42922C16.75 4.85592 17.4206 5.12048 18.1667 5.12048C19.7344 5.12048 21 3.97691 21 2.56024C21 1.14357 19.7344 0 18.1667 0C16.5989 0 15.3333 1.14357 15.3333 2.56024C15.3333 2.76506 15.3711 2.96135 15.4183 3.15763L8.76 6.66516C8.25 6.23845 7.57944 5.9739 6.83333 5.9739C5.26556 5.9739 4 7.11747 4 8.53414C4 9.9508 5.26556 11.0944 6.83333 11.0944C7.57944 11.0944 8.25 10.8298 8.76 10.4031L15.4844 13.9533C15.4372 14.1325 15.4089 14.3203 15.4089 14.508C15.4089 15.882 16.6461 17 18.1667 17C19.6872 17 20.9244 15.882 20.9244 14.508C20.9244 13.134 19.6872 12.0161 18.1667 12.0161Z" fill="white"/>
</g>
<defs>
<filter id="filter0_d_256_1116" x="0" y="0" width="25" height="25" filterUnits="userSpaceOnUse" color-interpolation-filters="sRGB">
<feFlood flood-opacity="0" result="BackgroundImageFix"/>
<feColorMatrix in="SourceAlpha" type="matrix" values="0 0 0 0 0 0 0 0 0 0 0 0 0 0 0 0 0 0 127 0" result="hardAlpha"/>
<feOffset dy="4"/>
<feGaussianBlur stdDeviation="2"/>
<feComposite in2="hardAlpha" operator="out"/>
<feColorMatrix type="matrix" values="0 0 0 0 0 0 0 0 0 0 0 0 0 0 0 0 0 0 0.25 0"/>
<feBlend mode="normal" in2="BackgroundImageFix" result="effect1_dropShadow_256_1116"/>
<feBlend mode="normal" in="SourceGraphic" in2="effect1_dropShadow_256_1116" result="shape"/>
</filter>
</defs>
</svg>
