<svg width="41" height="37" viewBox="0 0 41 37" fill="none" xmlns="http://www.w3.org/2000/svg">
<path d="M35.4091 22.2V27.75H41V31.45H35.4091V37H31.6818V31.45H26.0909V27.75H31.6818V22.2H35.4091ZM35.424 0C36.4453 0 37.2727 0.82325 37.2727 1.83705V19.1327C36.0756 18.7129 34.8151 18.499 33.5455 18.5V3.7H3.72727L3.72914 29.6L21.046 12.4079C21.3665 12.0888 21.7934 11.8969 22.2464 11.8682C22.6995 11.8396 23.1474 11.9763 23.506 12.2526L23.6812 12.4098L30.2878 18.9773C28.8428 19.4144 27.502 20.1375 26.3461 21.1029C25.1903 22.0683 24.2433 23.2561 23.5624 24.5946C22.8815 25.9332 22.4807 27.3948 22.3842 28.8912C22.2877 30.3877 22.4976 31.8881 23.001 33.3018L1.84873 33.3C1.35824 33.2995 0.888017 33.1057 0.541367 32.7613C0.194717 32.4168 -2.48712e-07 31.9498 0 31.4629V1.83705C0.00341054 1.3512 0.199223 0.886182 0.545138 0.542453C0.891052 0.198723 1.3593 0.0038751 1.84873 0H35.424ZM11.1818 7.4C12.1704 7.4 13.1184 7.78982 13.8174 8.4837C14.5164 9.17759 14.9091 10.1187 14.9091 11.1C14.9091 12.0813 14.5164 13.0224 13.8174 13.7163C13.1184 14.4102 12.1704 14.8 11.1818 14.8C10.1933 14.8 9.24524 14.4102 8.54624 13.7163C7.84724 13.0224 7.45455 12.0813 7.45455 11.1C7.45455 10.1187 7.84724 9.17759 8.54624 8.4837C9.24524 7.78982 10.1933 7.4 11.1818 7.4Z" fill="#3E3E3E"/>
</svg>
