<svg width="34" height="35" viewBox="0 0 34 35" fill="none" xmlns="http://www.w3.org/2000/svg">
<path d="M3.77778 31.1111H6.46944L24.9333 12.1042L22.2417 9.33333L3.77778 28.3403V31.1111ZM0 35V26.7361L24.9333 1.11806C25.3111 0.761574 25.7285 0.486111 26.1857 0.291667C26.6428 0.0972224 27.1225 0 27.625 0C28.1274 0 28.6154 0.0972224 29.0889 0.291667C29.5624 0.486111 29.9716 0.777778 30.3167 1.16667L32.9139 3.88889C33.2917 4.24537 33.5674 4.66667 33.7412 5.15278C33.915 5.63889 34.0012 6.125 34 6.61111C34 7.12963 33.9137 7.62417 33.7412 8.09472C33.5687 8.56528 33.2929 8.99435 32.9139 9.38194L8.02777 35H0ZM23.5639 10.7431L22.2417 9.33333L24.9333 12.1042L23.5639 10.7431Z" fill="black"/>
</svg>
