<svg width="36" height="61" viewBox="0 0 36 61" fill="none" xmlns="http://www.w3.org/2000/svg">
<path d="M34.6234 59.6573C35.5048 58.7973 36 57.6311 36 56.415C36 55.199 35.5048 54.0328 34.6234 53.1728L11.3492 30.4723L34.6234 7.77186C35.4798 6.90694 35.9538 5.74852 35.943 4.5461C35.9323 3.34368 35.4378 2.19346 34.5661 1.34319C33.6943 0.492918 32.515 0.0106225 31.2822 0.000174109C30.0494 -0.0102743 28.8617 0.451964 27.975 1.28733L1.37663 27.23C0.495175 28.09 -1.38756e-06 29.2563 -1.33441e-06 30.4723C-1.28125e-06 31.6883 0.495175 32.8546 1.37663 33.7146L27.975 59.6573C28.8567 60.517 30.0524 61 31.2992 61C32.5459 61 33.7416 60.517 34.6234 59.6573Z" fill="white"/>
</svg>
