<svg width="31" height="31" viewBox="0 0 31 31" fill="none" xmlns="http://www.w3.org/2000/svg">
<path fill-rule="evenodd" clip-rule="evenodd" d="M15.5177 19.6727L25.9574 30.1005C26.5113 30.6538 27.2627 30.9647 28.0461 30.9647C28.8295 30.9647 29.5809 30.6538 30.1348 30.1005C30.6888 29.5472 31 28.7967 31 28.0142C31 27.2316 30.6888 26.4811 30.1348 25.9278L19.6912 15.5L30.1329 5.07219C30.407 4.79821 30.6245 4.47297 30.7728 4.11504C30.9211 3.75712 30.9974 3.37351 30.9973 2.98613C30.9972 2.59875 30.9208 2.21519 30.7723 1.85733C30.6238 1.49947 30.4062 1.17434 30.1319 0.900481C29.8576 0.626627 29.532 0.40942 29.1736 0.261261C28.8153 0.113101 28.4312 0.0368915 28.0434 0.0369828C27.6556 0.0370741 27.2716 0.113464 26.9133 0.261792C26.5551 0.41012 26.2296 0.627482 25.9554 0.901465L15.5177 11.3293L5.07795 0.901465C4.80568 0.619623 4.47994 0.394765 4.11974 0.240012C3.75954 0.0852597 3.37209 0.00371037 2.98 0.000123694C2.58792 -0.00346298 2.19904 0.0709842 1.83606 0.219122C1.47308 0.367259 1.14328 0.58612 0.865887 0.862934C0.588496 1.13975 0.369075 1.46897 0.220426 1.83139C0.0717774 2.19382 -0.0031214 2.58218 9.96463e-05 2.97383C0.00332069 3.36547 0.0845968 3.75255 0.239186 4.11249C0.393776 4.47242 0.618583 4.798 0.900489 5.07023L11.3441 15.5L0.902459 25.9298C0.620552 26.202 0.395745 26.5276 0.241156 26.8875C0.0865662 27.2474 0.00528919 27.6345 0.00206815 28.0262C-0.0011529 28.4178 0.0737459 28.8062 0.222395 29.1686C0.371043 29.531 0.590465 29.8603 0.867856 30.1371C1.14525 30.4139 1.47505 30.6327 1.83803 30.7809C2.20101 30.929 2.58988 31.0035 2.98197 30.9999C3.37406 30.9963 3.76151 30.9147 4.12171 30.76C4.48191 30.6052 4.80765 30.3804 5.07992 30.0985L15.5177 19.6727Z" fill="white"/>
</svg>
