<svg width="33" height="35" viewBox="0 0 33 35" fill="none" xmlns="http://www.w3.org/2000/svg">
<path d="M23.7333 26.25H24.2333V25.75V20.9805V20.8276L24.1478 20.7008C23.3878 19.5742 22.4813 18.5911 21.4292 17.7534C20.6196 17.1087 19.7498 16.5696 18.8205 16.1365C19.1731 15.8621 19.4967 15.5646 19.791 15.2436C20.2791 14.7111 20.7046 14.1279 21.0672 13.4945C21.4343 12.8535 21.7096 12.1722 21.8929 11.4519C22.0755 10.7342 22.1667 9.99993 22.1667 9.25C22.1667 8.04649 21.9387 6.90532 21.4808 5.83123C21.0256 4.76376 20.3973 3.83321 19.5954 3.04444C18.7963 2.25831 17.8666 1.6385 16.8102 1.18507C15.7439 0.727374 14.6055 0.5 13.4 0.5C12.1945 0.5 11.0514 0.727375 9.97539 1.18431C8.90602 1.63845 7.97369 2.26543 7.18333 3.06563C6.39561 3.86316 5.77444 4.7911 5.31999 5.84556C4.86125 6.91 4.63333 8.04651 4.63332 9.25L4.63335 9.25368C4.6447 10.7943 5.00892 12.2103 5.73109 13.4916C6.30361 14.5074 7.05644 15.3841 7.98487 16.1214C7.04494 16.5453 6.1828 17.0739 5.4 17.7076C4.39562 18.5206 3.5242 19.4514 2.7869 20.4994C2.04659 21.5517 1.48032 22.6991 1.08834 23.9397C0.69573 25.1823 0.5 26.4739 0.5 27.8125V28.3125H1H3.06667H3.56667V27.8125C3.56667 26.9114 3.68458 26.0439 3.91937 25.2085C4.15553 24.3683 4.48846 23.5869 4.91762 22.8629C5.34897 22.1351 5.86232 21.4691 6.45829 20.8641C7.05123 20.2621 7.70972 19.7528 8.43455 19.3351C9.16127 18.9163 9.94593 18.5884 10.79 18.3521C11.6273 18.1177 12.4968 18 13.4 18C14.5704 18 15.6856 18.1945 16.7485 18.582C17.817 18.9717 18.774 19.5136 19.6226 20.2074C20.4719 20.9018 21.1943 21.7296 21.7903 22.6936C22.3828 23.6518 22.7975 24.703 23.0337 25.8508L23.1158 26.25H23.5234H23.7333ZM19.1 9.25H19.1L19.1 9.25626C19.1099 10.047 18.9618 10.781 18.6586 11.4642C18.3489 12.1621 17.9367 12.7656 17.4223 13.2789C16.9092 13.791 16.3063 14.1962 15.6091 14.4944C14.9201 14.7891 14.1854 14.9375 13.4 14.9375C12.603 14.9375 11.8629 14.7887 11.1747 14.4944C10.4796 14.1971 9.8777 13.7878 9.36488 13.2662C8.8486 12.741 8.44156 12.137 8.14276 11.4512C7.849 10.7769 7.7 10.045 7.7 9.25C7.7 8.47828 7.84831 7.74435 8.14481 7.04406C8.44293 6.33993 8.85281 5.73505 9.37429 5.22444C9.90051 4.70919 10.5058 4.30288 11.1933 4.00458C11.8693 3.71128 12.6029 3.5625 13.4 3.5625V3.56254L13.4064 3.56246C14.1756 3.55262 14.9072 3.69979 15.606 4.00427C16.3161 4.31371 16.9253 4.72507 17.4385 5.23721C17.9516 5.74927 18.3575 6.35088 18.6562 7.04642C18.9514 7.73372 19.1 8.46664 19.1 9.25ZM32.5 27.8125V27.3125H32H28.3667V23.6875V23.1875H27.8667H25.8H25.3V23.6875V27.3125H21.6667H21.1667V27.8125V29.875V30.375H21.6667H25.3V34V34.5H25.8H27.8667H28.3667V34V30.375H32H32.5V29.875V27.8125Z" fill="#1F2A51" stroke="#1F2A51"/>
</svg>
