<svg width="60" height="57" viewBox="0 0 60 57" fill="none" xmlns="http://www.w3.org/2000/svg">
<path d="M51.8182 34.1202V42.6456H60V48.3292H51.8182V56.8545H46.3636V48.3292H38.1818V42.6456H46.3636V34.1202H51.8182ZM51.84 0.0187988C53.3345 0.0187988 54.5455 1.28339 54.5455 2.84069V29.4085C52.7935 28.7637 50.9489 28.4351 49.0909 28.4367V5.70237H5.45455L5.45727 45.4874L30.7991 19.0787C31.2681 18.5884 31.8928 18.2936 32.5557 18.2496C33.2187 18.2056 33.8743 18.4156 34.3991 18.8399L34.6555 19.0815L44.3236 29.1698C42.209 29.8413 40.2468 30.9519 38.5553 32.4349C36.8638 33.9179 35.478 35.7425 34.4816 37.7986C33.4851 39.8548 32.8986 42.0999 32.7574 44.3986C32.6162 46.6973 32.9232 49.002 33.66 51.1738L2.70545 51.1709C1.98767 51.1702 1.29954 50.8725 0.792244 50.3434C0.284951 49.8143 -3.63969e-07 49.097 0 48.349V2.84069C0.00499103 2.09438 0.291546 1.38006 0.797762 0.85206C1.30398 0.324058 1.98922 0.0247514 2.70545 0.0187988H51.84ZM16.3636 11.3859C17.8103 11.3859 19.1977 11.9847 20.2206 13.0506C21.2435 14.1165 21.8182 15.5621 21.8182 17.0695C21.8182 18.5769 21.2435 20.0225 20.2206 21.0884C19.1977 22.1543 17.8103 22.7531 16.3636 22.7531C14.917 22.7531 13.5296 22.1543 12.5067 21.0884C11.4838 20.0225 10.9091 18.5769 10.9091 17.0695C10.9091 15.5621 11.4838 14.1165 12.5067 13.0506C13.5296 11.9847 14.917 11.3859 16.3636 11.3859Z" fill="white"/>
</svg>
