<svg width="39" height="42" viewBox="0 0 39 42" fill="none" xmlns="http://www.w3.org/2000/svg">
<path d="M35.7596 15.3267L8.46112 0.955737C7.38379 0.391184 6.16729 0.1902 4.9775 0.380185C3.78771 0.570171 2.68253 1.14188 1.81263 2.01737C0.942724 2.89286 0.350442 4.02952 0.116533 5.27237C-0.117377 6.51523 0.0184698 7.8038 0.505551 8.96239L5.1853 19.9869C5.29148 20.2535 5.34617 20.5396 5.34617 20.8287C5.34617 21.1177 5.29148 21.4039 5.1853 21.6704L0.505551 32.695C0.109137 33.6326 -0.0584451 34.6596 0.0180325 35.6828C0.0945101 36.706 0.412623 37.6928 0.943462 38.5536C1.4743 39.4144 2.20103 40.1218 3.05762 40.6117C3.9142 41.1016 4.87347 41.3583 5.84826 41.3586C6.76126 41.349 7.66067 41.1245 8.48062 40.7016L35.7791 26.3307C36.7474 25.8178 37.5614 25.0318 38.1301 24.0602C38.6988 23.0887 39 21.9699 39 20.8287C39 19.6874 38.6988 18.5686 38.1301 17.5971C37.5614 16.6256 36.7474 15.8395 35.7791 15.3267H35.7596ZM34.0242 22.6558L6.72571 37.0268C6.36725 37.208 5.96473 37.2695 5.57213 37.203C5.17953 37.1365 4.81561 36.9453 4.52918 36.6549C4.24275 36.3645 4.04749 35.9888 3.9696 35.5782C3.8917 35.1677 3.93488 34.7419 4.09336 34.3579L8.7536 23.3333C8.81393 23.1861 8.86602 23.0353 8.90959 22.8817H22.3444C22.8615 22.8817 23.3575 22.6654 23.7231 22.2804C24.0888 21.8953 24.2943 21.3732 24.2943 20.8287C24.2943 20.2842 24.0888 19.762 23.7231 19.377C23.3575 18.992 22.8615 18.7757 22.3444 18.7757H8.90959C8.86602 18.6221 8.81393 18.4712 8.7536 18.324L4.09336 7.29947C3.93488 6.91549 3.8917 6.48967 3.9696 6.07911C4.04749 5.66856 4.24275 5.29289 4.52918 5.00248C4.81561 4.71208 5.17953 4.52081 5.57213 4.45434C5.96473 4.38787 6.36725 4.44937 6.72571 4.63059L34.0242 19.0015C34.3436 19.1738 34.6117 19.4355 34.7988 19.7579C34.986 20.0803 35.085 20.4508 35.085 20.8287C35.085 21.2065 34.986 21.577 34.7988 21.8994C34.6117 22.2218 34.3436 22.4836 34.0242 22.6558Z" fill="white"/>
</svg>
