<svg width="25" height="27" viewBox="0 0 25 27" fill="none" xmlns="http://www.w3.org/2000/svg">
<path d="M23.0554 27L14.3054 17.55C13.611 18.15 12.8124 18.625 11.9096 18.975C11.0068 19.325 10.0462 19.5 9.02766 19.5C6.50451 19.5 4.36932 18.556 2.6221 16.668C0.874879 14.78 0.00080459 12.474 -0.000121335 9.75C-0.00104726 7.026 0.873027 4.72 2.6221 2.832C4.37117 0.944 6.50636 0 9.02766 0C11.549 0 13.6846 0.944 15.4346 2.832C17.1846 4.72 18.0582 7.026 18.0554 9.75C18.0554 10.85 17.8934 11.8875 17.5693 12.8625C17.2452 13.8375 16.8054 14.7 16.2499 15.45L24.9999 24.9L23.0554 27ZM9.02766 16.5C10.7638 16.5 12.2397 15.844 13.4554 14.532C14.6712 13.22 15.2786 11.626 15.2777 9.75C15.2767 7.874 14.6693 6.2805 13.4554 4.9695C12.2415 3.6585 10.7656 3.002 9.02766 3C7.28969 2.998 5.81423 3.6545 4.60127 4.9695C3.3883 6.2845 2.78043 7.878 2.77766 9.75C2.77488 11.622 3.38275 13.216 4.60127 14.532C5.81979 15.848 7.29525 16.504 9.02766 16.5Z" fill="#575454"/>
</svg>
