<svg width="26" height="27" viewBox="0 0 26 27" fill="none" xmlns="http://www.w3.org/2000/svg">
<path d="M9.69111 17C11.5711 17 13.1785 16.2825 14.4856 14.8718C15.7916 13.4625 16.4421 11.7451 16.4411 9.74975C16.4401 7.7548 15.7898 6.03811 14.4858 4.6298C13.1804 3.21998 11.5731 2.50217 9.69168 2.5C7.80932 2.49783 6.2018 3.21615 4.8972 4.63049C3.59499 6.04225 2.94406 7.75828 2.94111 9.74926C2.93815 11.7414 3.58952 13.4587 4.89784 14.8717C6.2072 16.2858 7.81403 17.004 9.69111 17ZM9.69111 17V16.5L9.69226 17C9.69188 17 9.69149 17 9.69111 17ZM23.7189 26.2641L15.3358 17.2103L15.0075 16.8558L14.642 17.1717C13.9932 17.7322 13.2447 18.1784 12.3923 18.5088C11.5501 18.8353 10.6511 19 9.69111 19C7.31035 19 5.30721 18.1164 3.65252 16.3284C1.99615 14.5386 1.16422 12.3561 1.16333 9.74983C1.16244 7.14381 1.99428 4.96156 3.65234 3.1718C5.30902 1.38353 7.3123 0.5 9.69111 0.5C12.0699 0.5 14.0737 1.38354 15.7314 3.1719C17.3902 4.96158 18.2215 7.14366 18.2189 9.74949V9.75C18.2189 10.8002 18.0643 11.7841 17.7583 12.7048C17.4492 13.6346 17.0326 14.4489 16.5116 15.1524L16.2648 15.4855L16.5464 15.7897L24.9819 24.9L23.7189 26.2641Z" fill="#575454" stroke="black"/>
</svg>
