<svg width="9" height="12" viewBox="0 0 9 12" fill="none" xmlns="http://www.w3.org/2000/svg">
<path d="M4.50013 0.916992C4.04048 0.916958 3.58532 1.00629 3.16065 1.1799C2.73598 1.35351 2.35011 1.60798 2.02509 1.9288C1.70006 2.24961 1.44225 2.63048 1.26636 3.04965C1.09047 3.46882 0.999965 3.91808 1 4.37178C1 7.07553 3.67219 10.3291 4.37243 11.1284C4.41005 11.1709 4.46316 11.1969 4.52017 11.2009C4.57718 11.2048 4.63346 11.1863 4.67673 11.1495L4.6981 11.1284C5.38899 10.3259 8 7.07553 8 4.37151C8 3.91786 7.90947 3.46865 7.73359 3.04952C7.5577 2.6304 7.29991 2.24958 6.97491 1.9288C6.64992 1.60802 6.2641 1.35356 5.83947 1.17995C5.41485 1.00635 4.95974 0.916992 4.50013 0.916992ZM4.50013 5.30924C4.26536 5.30924 4.03587 5.24053 3.84066 5.11179C3.64546 4.98304 3.49332 4.80006 3.40347 4.58597C3.31363 4.37188 3.29012 4.13631 3.33593 3.90903C3.38173 3.68176 3.49478 3.47299 3.66079 3.30913C3.82679 3.14528 4.0383 3.03369 4.26856 2.98848C4.49882 2.94328 4.73749 2.96648 4.95439 3.05516C5.17128 3.14383 5.35667 3.29401 5.4871 3.48668C5.61753 3.67935 5.68715 3.90588 5.68715 4.13761V4.14051C5.68637 4.45074 5.56097 4.74801 5.33844 4.9671C5.11592 5.1862 4.81444 5.30924 4.50013 5.30924Z" fill="white" stroke="white" stroke-width="0.5" stroke-linecap="round" stroke-linejoin="round"/>
</svg>
