<svg width="59" height="49" viewBox="0 0 59 49" fill="none" xmlns="http://www.w3.org/2000/svg">
<path d="M50.9545 29.4V36.75H59V41.65H50.9545V49H45.5909V41.65H37.5455V36.75H45.5909V29.4H50.9545ZM50.976 0C52.4456 0 53.6364 1.09025 53.6364 2.43285V25.3379C51.9137 24.782 50.0998 24.4986 48.2727 24.5V4.9H5.36364L5.36632 39.2L30.2858 16.4321C30.7469 16.0095 31.3612 15.7553 32.0132 15.7174C32.6651 15.6795 33.3097 15.8605 33.8258 16.2264L34.0779 16.4346L43.5849 25.1321C41.5055 25.711 39.576 26.6685 37.9127 27.9471C36.2494 29.2256 34.8867 30.7986 33.9069 32.5713C32.927 34.344 32.3503 36.2795 32.2115 38.2614C32.0726 40.2432 32.3745 42.2301 33.099 44.1025L2.66036 44.1C1.95455 44.0993 1.27788 43.8427 0.77904 43.3866C0.280202 42.9304 -3.57902e-07 42.312 0 41.6672V2.43285C0.00490785 1.78943 0.286687 1.17359 0.784466 0.718383C1.28225 0.263174 1.95607 0.00513189 2.66036 0H50.976ZM16.0909 9.8C17.5134 9.8 18.8777 10.3162 19.8836 11.2352C20.8895 12.1541 21.4545 13.4004 21.4545 14.7C21.4545 15.9996 20.8895 17.2459 19.8836 18.1648C18.8777 19.0838 17.5134 19.6 16.0909 19.6C14.6684 19.6 13.3041 19.0838 12.2982 18.1648C11.2924 17.2459 10.7273 15.9996 10.7273 14.7C10.7273 13.4004 11.2924 12.1541 12.2982 11.2352C13.3041 10.3162 14.6684 9.8 16.0909 9.8Z" fill="white"/>
</svg>
