<svg width="51" height="59" viewBox="0 0 51 59" fill="none" xmlns="http://www.w3.org/2000/svg">
<g filter="url(#filter0_d_257_555)">
<path d="M18.875 50.6657C18.3114 50.6657 17.7709 50.4024 17.3724 49.9338C16.9739 49.4651 16.75 48.8294 16.75 48.1667V40.6695H8.25C7.12283 40.6695 6.04183 40.1429 5.2448 39.2056C4.44777 38.2682 4 36.997 4 35.6714V5.68268C4 4.3571 4.44777 3.08581 5.2448 2.14848C6.04183 1.21116 7.12283 0.68457 8.25 0.68457H42.25C43.3772 0.68457 44.4582 1.21116 45.2552 2.14848C46.0522 3.08581 46.5 4.3571 46.5 5.68268V35.6714C46.5 36.997 46.0522 38.2682 45.2552 39.2056C44.4582 40.1429 43.3772 40.6695 42.25 40.6695H29.2875L21.425 49.941C21 50.4158 20.4688 50.6657 19.9375 50.6657H18.875Z" fill="white"/>
</g>
<defs>
<filter id="filter0_d_257_555" x="0" y="0.68457" width="50.5" height="57.981" filterUnits="userSpaceOnUse" color-interpolation-filters="sRGB">
<feFlood flood-opacity="0" result="BackgroundImageFix"/>
<feColorMatrix in="SourceAlpha" type="matrix" values="0 0 0 0 0 0 0 0 0 0 0 0 0 0 0 0 0 0 127 0" result="hardAlpha"/>
<feOffset dy="4"/>
<feGaussianBlur stdDeviation="2"/>
<feComposite in2="hardAlpha" operator="out"/>
<feColorMatrix type="matrix" values="0 0 0 0 0 0 0 0 0 0 0 0 0 0 0 0 0 0 0.25 0"/>
<feBlend mode="normal" in2="BackgroundImageFix" result="effect1_dropShadow_257_555"/>
<feBlend mode="normal" in="SourceGraphic" in2="effect1_dropShadow_257_555" result="shape"/>
</filter>
</defs>
</svg>
