<svg width="51" height="59" viewBox="0 0 51 59" fill="none" xmlns="http://www.w3.org/2000/svg">
<g filter="url(#filter0_d_257_552)">
<path d="M18.875 50.6706C18.3114 50.6706 17.7709 50.4073 17.3724 49.9386C16.9739 49.47 16.75 48.8343 16.75 48.1715V40.6744H8.25C7.12283 40.6744 6.04183 40.1478 5.2448 39.2105C4.44777 38.2731 4 37.0018 4 35.6763V5.68757C4 4.36198 4.44777 3.09069 5.2448 2.15337C6.04183 1.21604 7.12283 0.689453 8.25 0.689453H42.25C43.3772 0.689453 44.4582 1.21604 45.2552 2.15337C46.0522 3.09069 46.5 4.36198 46.5 5.68757V35.6763C46.5 37.0018 46.0522 38.2731 45.2552 39.2105C44.4582 40.1478 43.3772 40.6744 42.25 40.6744H29.2875L21.425 49.9459C21 50.4207 20.4688 50.6706 19.9375 50.6706H18.875Z" fill="white"/>
</g>
<defs>
<filter id="filter0_d_257_552" x="0" y="0.689453" width="50.5" height="57.981" filterUnits="userSpaceOnUse" color-interpolation-filters="sRGB">
<feFlood flood-opacity="0" result="BackgroundImageFix"/>
<feColorMatrix in="SourceAlpha" type="matrix" values="0 0 0 0 0 0 0 0 0 0 0 0 0 0 0 0 0 0 127 0" result="hardAlpha"/>
<feOffset dy="4"/>
<feGaussianBlur stdDeviation="2"/>
<feComposite in2="hardAlpha" operator="out"/>
<feColorMatrix type="matrix" values="0 0 0 0 0 0 0 0 0 0 0 0 0 0 0 0 0 0 0.25 0"/>
<feBlend mode="normal" in2="BackgroundImageFix" result="effect1_dropShadow_257_552"/>
<feBlend mode="normal" in="SourceGraphic" in2="effect1_dropShadow_257_552" result="shape"/>
</filter>
</defs>
</svg>
