<svg width="47" height="56" viewBox="0 0 47 56" fill="none" xmlns="http://www.w3.org/2000/svg">
<g filter="url(#filter0_d_630_3041)">
<path d="M35.875 33.4311C34.26 33.4311 32.815 34.1435 31.71 35.2594L16.5588 25.4058C16.665 24.8597 16.75 24.3136 16.75 23.7437C16.75 23.1739 16.665 22.6278 16.5588 22.0817L31.54 12.323C32.6875 13.5102 34.1962 14.2462 35.875 14.2462C39.4025 14.2462 42.25 11.0646 42.25 7.12311C42.25 3.18166 39.4025 0 35.875 0C32.3475 0 29.5 3.18166 29.5 7.12311C29.5 7.69296 29.585 8.23907 29.6912 8.78517L14.71 18.5438C13.5625 17.3567 12.0538 16.6206 10.375 16.6206C6.8475 16.6206 4 19.8023 4 23.7437C4 27.6852 6.8475 30.8668 10.375 30.8668C12.0538 30.8668 13.5625 30.1308 14.71 28.9436L29.84 38.821C29.7337 39.3196 29.67 39.8419 29.67 40.3643C29.67 44.187 32.4538 47.2975 35.875 47.2975C39.2962 47.2975 42.08 44.187 42.08 40.3643C42.08 36.5416 39.2962 33.4311 35.875 33.4311Z" fill="white"/>
</g>
<defs>
<filter id="filter0_d_630_3041" x="0" y="0" width="46.25" height="55.2974" filterUnits="userSpaceOnUse" color-interpolation-filters="sRGB">
<feFlood flood-opacity="0" result="BackgroundImageFix"/>
<feColorMatrix in="SourceAlpha" type="matrix" values="0 0 0 0 0 0 0 0 0 0 0 0 0 0 0 0 0 0 127 0" result="hardAlpha"/>
<feOffset dy="4"/>
<feGaussianBlur stdDeviation="2"/>
<feComposite in2="hardAlpha" operator="out"/>
<feColorMatrix type="matrix" values="0 0 0 0 0 0 0 0 0 0 0 0 0 0 0 0 0 0 0.25 0"/>
<feBlend mode="normal" in2="BackgroundImageFix" result="effect1_dropShadow_630_3041"/>
<feBlend mode="normal" in="SourceGraphic" in2="effect1_dropShadow_630_3041" result="shape"/>
</filter>
</defs>
</svg>
