<svg width="9" height="12" viewBox="0 0 9 12" fill="none" xmlns="http://www.w3.org/2000/svg">
<path d="M4.50013 1C4.04048 0.999966 3.58532 1.08683 3.16065 1.25564C2.73598 1.42444 2.35011 1.67188 2.02509 1.98383C1.70006 2.29577 1.44225 2.6661 1.26636 3.07368C1.09047 3.48126 0.999965 3.9181 1 4.35925C1 6.98823 3.67219 10.1518 4.37243 10.929C4.41005 10.9703 4.46316 10.9956 4.52017 10.9995C4.57718 11.0033 4.63346 10.9854 4.67673 10.9495L4.6981 10.929C5.38899 10.1488 8 6.98823 8 4.35899C8 3.91788 7.90947 3.48109 7.73359 3.07356C7.5577 2.66603 7.29991 2.29574 6.97491 1.98383C6.64992 1.67191 6.2641 1.42449 5.83947 1.25569C5.41485 1.08688 4.95974 1 4.50013 1ZM4.50013 5.27079C4.26536 5.27079 4.03587 5.20398 3.84066 5.07879C3.64546 4.95361 3.49332 4.77569 3.40347 4.56752C3.31363 4.35935 3.29012 4.13029 3.33593 3.9093C3.38173 3.68831 3.49478 3.48532 3.66079 3.32599C3.82679 3.16667 4.0383 3.05817 4.26856 3.01421C4.49882 2.97025 4.73749 2.99281 4.95439 3.07904C5.17128 3.16526 5.35667 3.31128 5.4871 3.49863C5.61753 3.68597 5.68715 3.90623 5.68715 4.13155V4.13437C5.68637 4.43603 5.56097 4.72507 5.33844 4.93811C5.11592 5.15115 4.81444 5.27079 4.50013 5.27079Z" fill="white" stroke="white" stroke-width="0.5" stroke-linecap="round" stroke-linejoin="round"/>
</svg>
