<svg width="20" height="12" viewBox="0 0 20 12" fill="none" xmlns="http://www.w3.org/2000/svg">
<path d="M18.9994 8.74754e-08L0.998885 1.66113e-06C0.81664 0.000459441 0.637999 0.0407417 0.482196 0.116511C0.32639 0.192282 0.199321 0.300669 0.114665 0.430011C0.0300092 0.559351 -0.00902847 0.704746 0.00175569 0.850545C0.0125379 0.996343 0.0727339 1.13702 0.175862 1.25744L9.17612 11.676C9.54913 12.108 10.4472 12.108 10.8212 11.676L19.8214 1.25744C19.9256 1.13727 19.9867 0.996522 19.9981 0.85048C20.0094 0.704439 19.9706 0.558694 19.8859 0.429079C19.8012 0.299464 19.6737 0.190937 19.5174 0.11529C19.3612 0.0396433 19.182 -0.000230718 18.9994 8.74754e-08Z" fill="white"/>
</svg>
