<svg width="9" height="12" viewBox="0 0 9 12" fill="none" xmlns="http://www.w3.org/2000/svg">
<path d="M4.50013 0.888428C4.04048 0.888393 3.58532 0.97773 3.16065 1.15134C2.73598 1.32494 2.35011 1.57942 2.02509 1.90023C1.70006 2.22105 1.44225 2.60191 1.26636 3.02108C1.09047 3.44025 0.999965 3.88951 1 4.34321C1 7.04697 3.67219 10.3005 4.37243 11.0998C4.41005 11.1423 4.46316 11.1683 4.52017 11.1723C4.57718 11.1763 4.63346 11.1578 4.67673 11.1209L4.6981 11.0998C5.38899 10.2974 8 7.04697 8 4.34295C8 3.88929 7.90947 3.44008 7.73359 3.02096C7.5577 2.60184 7.29991 2.22101 6.97491 1.90023C6.64992 1.57945 6.2641 1.32499 5.83947 1.15139C5.41485 0.977782 4.95974 0.888428 4.50013 0.888428ZM4.50013 5.28068C4.26536 5.28068 4.03587 5.21196 3.84066 5.08322C3.64546 4.95448 3.49332 4.7715 3.40347 4.55741C3.31363 4.34332 3.29012 4.10774 3.33593 3.88047C3.38173 3.65319 3.49478 3.44443 3.66079 3.28057C3.82679 3.11671 4.0383 3.00513 4.26856 2.95992C4.49882 2.91471 4.73749 2.93791 4.95439 3.02659C5.17128 3.11527 5.35667 3.26544 5.4871 3.45812C5.61753 3.65079 5.68715 3.87731 5.68715 4.10904V4.11194C5.68637 4.42218 5.56097 4.71944 5.33844 4.93854C5.11592 5.15764 4.81444 5.28068 4.50013 5.28068Z" fill="white" stroke="white" stroke-width="0.5" stroke-linecap="round" stroke-linejoin="round"/>
</svg>
