<svg width="40" height="40" viewBox="0 0 40 40" fill="none" xmlns="http://www.w3.org/2000/svg">
<path d="M34.5455 24V30H40V34H34.5455V40H30.9091V34H25.4545V30H30.9091V24H34.5455ZM34.56 0C35.5564 0 36.3636 0.89 36.3636 1.986V20.684C35.1957 20.2302 33.9659 19.9989 32.7273 20V4H3.63636L3.63818 32L20.5327 13.414C20.8454 13.069 21.2619 12.8615 21.7038 12.8305C22.1458 12.7996 22.5828 12.9473 22.9327 13.246L23.1036 13.416L29.5491 20.516C28.1394 20.9885 26.8312 21.7702 25.7035 22.8139C24.5759 23.8576 23.652 25.1417 22.9877 26.5888C22.3234 28.0359 21.9324 29.616 21.8383 31.2338C21.7441 32.8516 21.9488 34.4736 22.44 36.002L1.80364 36C1.32512 35.9995 0.866358 35.79 0.528163 35.4176C0.189967 35.0452 -2.42646e-07 34.5404 0 34.014V1.986C0.00332735 1.46076 0.194364 0.958035 0.531842 0.586435C0.869319 0.214836 1.32615 0.0041893 1.80364 0H34.56ZM10.9091 8C11.8735 8 12.7984 8.42143 13.4804 9.17157C14.1623 9.92172 14.5455 10.9391 14.5455 12C14.5455 13.0609 14.1623 14.0783 13.4804 14.8284C12.7984 15.5786 11.8735 16 10.9091 16C9.94467 16 9.01974 15.5786 8.33779 14.8284C7.65584 14.0783 7.27273 13.0609 7.27273 12C7.27273 10.9391 7.65584 9.92172 8.33779 9.17157C9.01974 8.42143 9.94467 8 10.9091 8Z" fill="white"/>
</svg>
