<svg width="26" height="27" viewBox="0 0 26 27" fill="none" xmlns="http://www.w3.org/2000/svg">
<path d="M23.2524 27L14.6078 17.55C13.9217 18.15 13.1327 18.625 12.2408 18.975C11.3489 19.325 10.3999 19.5 9.39362 19.5C6.90087 19.5 4.79141 18.556 3.06524 16.668C1.33907 14.78 0.475525 12.474 0.47461 9.75C0.473695 7.026 1.33724 4.72 3.06524 2.832C4.79324 0.944 6.9027 0 9.39362 0C11.8845 0 13.9945 0.944 15.7234 2.832C17.4523 4.72 18.3154 7.026 18.3126 9.75C18.3126 10.85 18.1525 11.8875 17.8324 12.8625C17.5122 13.8375 17.0777 14.7 16.5288 15.45L25.1734 24.9L23.2524 27ZM9.39362 16.5C11.1088 16.5 12.567 15.844 13.7681 14.532C14.9691 13.22 15.5692 11.626 15.5683 9.75C15.5674 7.874 14.9673 6.2805 13.7681 4.9695C12.5688 3.6585 11.1106 3.002 9.39362 3C7.6766 2.998 6.21891 3.6545 5.02056 4.9695C3.82221 6.2845 3.22166 7.878 3.21892 9.75C3.21618 11.622 3.81672 13.216 5.02056 14.532C6.2244 15.848 7.68208 16.504 9.39362 16.5Z" fill="#575454"/>
</svg>
