<svg width="25" height="25" viewBox="0 0 25 25" fill="none" xmlns="http://www.w3.org/2000/svg">
<g filter="url(#filter0_d_256_1115)">
<path d="M9.95 17C9.72457 17 9.50837 16.9104 9.34896 16.751C9.18955 16.5916 9.1 16.3754 9.1 16.15V13.6H5.7C5.24913 13.6 4.81673 13.4209 4.49792 13.1021C4.17911 12.7833 4 12.3509 4 11.9V1.7C4 1.24913 4.17911 0.81673 4.49792 0.497918C4.81673 0.179107 5.24913 0 5.7 0H19.3C19.7509 0 20.1833 0.179107 20.5021 0.497918C20.8209 0.81673 21 1.24913 21 1.7V11.9C21 12.3509 20.8209 12.7833 20.5021 13.1021C20.1833 13.4209 19.7509 13.6 19.3 13.6H14.115L10.97 16.7535C10.8 16.915 10.5875 17 10.375 17H9.95Z" fill="white"/>
</g>
<defs>
<filter id="filter0_d_256_1115" x="0" y="0" width="25" height="25" filterUnits="userSpaceOnUse" color-interpolation-filters="sRGB">
<feFlood flood-opacity="0" result="BackgroundImageFix"/>
<feColorMatrix in="SourceAlpha" type="matrix" values="0 0 0 0 0 0 0 0 0 0 0 0 0 0 0 0 0 0 127 0" result="hardAlpha"/>
<feOffset dy="4"/>
<feGaussianBlur stdDeviation="2"/>
<feComposite in2="hardAlpha" operator="out"/>
<feColorMatrix type="matrix" values="0 0 0 0 0 0 0 0 0 0 0 0 0 0 0 0 0 0 0.25 0"/>
<feBlend mode="normal" in2="BackgroundImageFix" result="effect1_dropShadow_256_1115"/>
<feBlend mode="normal" in="SourceGraphic" in2="effect1_dropShadow_256_1115" result="shape"/>
</filter>
</defs>
</svg>
