<svg width="36" height="61" viewBox="0 0 36 61" fill="none" xmlns="http://www.w3.org/2000/svg">
<path d="M1.37664 1.3427C0.495174 2.2027 4.01742e-08 3.36894 5.46752e-08 4.58497C6.91762e-08 5.801 0.495174 6.96724 1.37664 7.82724L24.6508 30.5277L1.37664 53.2281C0.520158 54.0931 0.0462386 55.2515 0.0569503 56.4539C0.067662 57.6563 0.56215 58.8065 1.43391 59.6568C2.30567 60.5071 3.48495 60.9894 4.71776 60.9998C5.95057 61.0103 7.13826 60.548 8.02504 59.7127L34.6234 33.77C35.5048 32.91 36 31.7437 36 30.5277C36 29.3117 35.5048 28.1454 34.6234 27.2854L8.02504 1.3427C7.14331 0.482972 5.9476 3.58371e-07 4.70084 3.73239e-07C3.45407 3.88106e-07 2.25836 0.482972 1.37664 1.3427Z" fill="white"/>
</svg>
