<svg width="30" height="27" viewBox="0 0 30 27" fill="none" xmlns="http://www.w3.org/2000/svg">
<path d="M28.7109 26.0602C28.1172 26.5945 27.2161 26.5945 26.6225 26.0602L19.5615 19.7053C18.1637 18.4473 16.0811 18.3969 14.2917 18.975C13.2083 19.325 12.0556 19.5 10.8333 19.5C7.80556 19.5 5.24333 18.556 3.14667 16.668C1.05 14.78 0.00111199 12.474 8.81834e-07 9.75C-0.00111023 7.026 1.04778 4.72 3.14667 2.832C5.24556 0.944 7.80778 0 10.8333 0C13.8589 0 16.4217 0.944 18.5217 2.832C20.6217 4.72 21.67 7.026 21.6667 9.75C21.6667 10.85 21.4722 11.8875 21.0833 12.8625C20.4584 14.4294 20.5124 16.3611 21.7663 17.4896L28.7109 23.7398C29.3998 24.3598 29.3998 25.4402 28.7109 26.0602ZM10.8333 16.5C12.9167 16.5 14.6878 15.844 16.1467 14.532C17.6056 13.22 18.3344 11.626 18.3333 9.75C18.3322 7.874 17.6033 6.2805 16.1467 4.9695C14.69 3.6585 12.9189 3.002 10.8333 3C8.74778 2.998 6.97722 3.6545 5.52167 4.9695C4.06611 6.2845 3.33667 7.878 3.33333 9.75C3.33 11.622 4.05945 13.216 5.52167 14.532C6.98389 15.848 8.75445 16.504 10.8333 16.5Z" fill="#575454"/>
</svg>
